PathFileType  4	(X/Y/Z) C:\Users\antoi\Documents\MyRepositories\mobilecap\ResultsAnalysis
DataRate	CameraRate	NumFrames	NumMarkers	Units	OrigDataRate	OrigDataStartFrame	OrigNumFrames
100.0	100.0	5	55	mm	100.0	255	679
Frame#	Time	r_knee			r_shank_antsup			r_ankle			r_calc			r_5meta			r_toe			L_knee			L_shank_antsup			L_ankle			L_calc			L_5meta			L_toe			r_mknee			r_mankle			L_mknee			L_mankle			r_sh2			r_sh3			r_sh4			L_sh2			L_sh3			r_thigh1			r_thigh2			r_thigh3			r_thigh4			r_thigh5			L_thigh1			L_thigh2			L_thigh3			L_thigh4			r.ASIS			r.PSIS			L.ASIS			L.PSIS			C7			R_Shoulder			L_Shoulder			R_Sternum			L_Sternum			R_humerus			R_elbow_med			R_elbow_lat			R_forearm			R_wrist_radius			R_wrist_ulna			L_humerus			L_elbow_med			L_elbow_lat			L_forearm			L_wrist_radius			L_wrist_ulna			R_HJC			L_HJC			R_HJC_reg			L_HJC_reg			
		X1	Y1	Z1	X2	Y2	Z2	X3	Y3	Z3	X4	Y4	Z4	X5	Y5	Z5	X6	Y6	Z6	X7	Y7	Z7	X8	Y8	Z8	X9	Y9	Z9	X10	Y10	Z10	X11	Y11	Z11	X12	Y12	Z12	X13	Y13	Z13	X14	Y14	Z14	X15	Y15	Z15	X16	Y16	Z16	X17	Y17	Z17	X18	Y18	Z18	X19	Y19	Z19	X20	Y20	Z20	X21	Y21	Z21	X22	Y22	Z22	X23	Y23	Z23	X24	Y24	Z24	X25	Y25	Z25	X26	Y26	Z26	X27	Y27	Z27	X28	Y28	Z28	X29	Y29	Z29	X30	Y30	Z30	X31	Y31	Z31	X32	Y32	Z32	X33	Y33	Z33	X34	Y34	Z34	X35	Y35	Z35	X36	Y36	Z36	X37	Y37	Z37	X38	Y38	Z38	X39	Y39	Z39	X40	Y40	Z40	X41	Y41	Z41	X42	Y42	Z42	X43	Y43	Z43	X44	Y44	Z44	X45	Y45	Z45	X46	Y46	Z46	X47	Y47	Z47	X48	Y48	Z48	X49	Y49	Z49	X50	Y50	Z50	X51	Y51	Z51	X52	Y52	Z52	X53	Y53	Z53	X54	Y54	Z54	X55	Y55	Z55	

255	2.54000000	-220.73440	474.00439	-434.07981	-189.44984	365.08026	-449.63994	-256.28914	90.08040	-465.93585	-302.51132	52.08011	-517.40096	-141.70929	39.99112	-434.89862	-105.45266	58.69895	-476.88241	-215.44592	475.66762	-787.22977	-179.93449	374.63341	-748.26950	-256.25780	88.09722	-771.01318	-296.61496	51.32510	-719.84998	-134.31172	36.52900	-789.04647	-94.64012	58.64532	-736.11239	-239.95463	474.11324	-566.81272	-231.14489	108.03390	-544.03146	-224.27837	474.13696	-655.65626	-227.02835	106.89544	-689.23446	-198.94383	253.67287	-460.31315	-244.41999	362.85580	-397.17593	-268.72639	254.62897	-418.09307	-234.47190	397.86603	-816.16861	-245.73281	276.89574	-827.17613	-123.81817	776.82055	-453.13922	-124.06007	665.60450	-448.84949	-167.72818	641.71107	-404.51448	-225.77374	775.11531	-404.40966	-220.72310	659.42210	-399.71512	-131.55011	767.82997	-784.65421	-126.34444	629.02122	-783.21568	-236.81970	769.39389	-823.90712	-233.59130	628.64676	-816.48130	-114.04177	939.63550	-486.89166	-293.46783	988.55472	-561.00569	-102.58710	938.43452	-732.81586	-292.00084	988.10034	-677.40159	-293.53670	1434.74737	-620.48879	-238.61528	1407.55845	-464.46659	-234.21482	1413.94079	-778.01241	-167.20411	1399.13982	-604.39400	-164.43365	1396.24986	-642.58214	-206.44951	1280.14352	-403.63707	-258.91665	1080.29564	-458.38038	-231.68879	1085.57330	-388.10699	-169.58717	975.94359	-371.52319	-127.60589	879.37822	-375.67079	-158.87781	868.57111	-359.12292	-200.52081	1262.33520	-837.09824	-247.12612	1071.83655	-773.53019	-230.86677	1077.19865	-846.02189	-174.20492	996.11296	-863.49988	-124.78132	873.30129	-849.98875	-151.30962	865.49078	-868.03008	-205.12216	871.06945	-516.02164	-193.39547	866.66600	-704.98471	-185.53810	872.28901	-522.01484	-183.49038	871.65475	-684.48857	
256	2.55000000	-220.75976	473.97279	-434.13226	-189.46004	365.09010	-449.63250	-256.28950	90.09225	-465.94685	-302.50513	52.06035	-517.39484	-141.71888	39.97572	-434.89131	-105.46053	58.71467	-476.90174	-215.42934	475.67144	-787.27725	-179.93849	374.65543	-748.30413	-256.24989	88.09955	-771.01098	-296.59549	51.29475	-719.83142	-134.29887	36.53575	-789.04628	-94.66123	58.60372	-736.16382	-240.07233	474.00822	-566.71751	-231.14084	108.03122	-544.03135	-224.28057	474.13412	-655.65918	-227.03475	106.96897	-689.24489	-198.94953	253.67642	-460.31141	-244.43831	362.85134	-397.17820	-268.72889	254.63359	-418.09562	-234.47284	397.84700	-816.17612	-245.74451	276.90659	-827.19795	-123.82669	776.81905	-453.14086	-124.07271	665.59842	-448.84965	-167.77890	641.69970	-404.49255	-225.79721	775.11244	-404.44045	-220.83597	659.42698	-399.85728	-131.55003	767.82888	-784.65595	-126.34151	629.02844	-783.21484	-236.82185	769.38799	-823.90747	-233.59704	628.64252	-816.48298	-114.03941	939.61416	-486.88962	-293.46361	988.55109	-561.00857	-102.60365	938.43752	-732.80720	-291.97578	988.09032	-677.40394	-293.46856	1434.80615	-620.60257	-238.55354	1407.54868	-464.46838	-234.15027	1413.93397	-778.03704	-167.13494	1399.16100	-604.41831	-164.33303	1396.23302	-642.64217	-206.44921	1280.12682	-403.66714	-258.81368	1080.31830	-458.32880	-231.67979	1085.57895	-388.11232	-169.62790	975.90656	-371.56833	-127.61701	879.37435	-375.67982	-158.89821	868.59937	-359.11072	-200.41179	1262.35762	-837.12315	-247.15990	1071.85863	-773.50148	-230.80505	1077.19204	-845.98736	-174.15985	996.11589	-863.46431	-124.73413	873.30341	-849.94676	-150.87044	865.33211	-868.25746	-205.12339	871.05568	-516.02593	-193.39386	866.66320	-704.98908	-185.56213	872.29292	-522.02221	-183.48536	871.64975	-684.49052	
257	2.56000000	-220.76235	473.97713	-434.10059	-189.47812	365.10790	-449.59454	-256.28288	90.10390	-465.94910	-302.50999	52.04927	-517.40243	-141.73656	39.93484	-434.88190	-105.46581	58.73364	-476.90469	-215.40641	475.68307	-787.33339	-179.95267	374.69300	-748.34450	-256.25003	88.10093	-771.00138	-296.39856	51.00398	-719.62607	-134.27743	36.54154	-789.03551	-94.66603	58.62894	-736.17668	-240.16793	473.92980	-566.65244	-231.13828	108.03243	-544.03075	-224.28348	474.13006	-655.66430	-227.03497	106.91444	-689.23514	-198.96092	253.69423	-460.30457	-244.44190	362.87053	-397.17739	-268.72813	254.63990	-418.09277	-234.48473	397.85432	-816.17357	-245.70372	276.97616	-827.16884	-123.82968	776.82276	-453.14087	-124.09122	665.59254	-448.84560	-167.84060	641.68620	-404.47158	-225.80758	775.13760	-404.44540	-221.07062	659.42598	-400.08587	-131.54735	767.82940	-784.65047	-126.33778	629.03205	-783.21876	-236.82445	769.39011	-823.90065	-233.59918	628.64670	-816.48723	-114.01993	939.59108	-486.89712	-293.45671	988.54830	-561.01151	-102.58673	938.44351	-732.81719	-291.96645	988.08294	-677.40099	-293.42079	1434.87779	-620.68105	-238.47315	1407.56040	-464.52496	-234.09605	1413.95096	-778.03654	-167.06574	1399.18629	-604.45713	-164.24918	1396.21996	-642.67452	-206.43799	1280.10711	-403.66259	-258.73114	1080.38558	-458.31056	-231.65029	1085.58140	-388.12467	-169.62219	975.88211	-371.62534	-127.63938	879.38268	-375.66603	-158.91520	868.62283	-359.11861	-200.29863	1262.39354	-837.22033	-247.16103	1071.87419	-773.49351	-230.75940	1077.20804	-846.00260	-174.09400	996.12056	-863.41661	-124.68046	873.29264	-849.88541	-150.55951	865.24785	-868.41165	-205.10868	871.03980	-516.03876	-193.38194	866.66471	-705.00248	-185.55506	872.29545	-522.02939	-183.47478	871.64585	-684.49910	
258	2.57000000	-220.75598	474.01573	-434.03692	-189.51199	365.14223	-449.56498	-256.28816	90.10335	-465.95323	-302.51431	52.05029	-517.38500	-141.74386	39.91950	-434.87995	-105.45946	58.73184	-476.89159	-215.40886	475.69365	-787.33347	-179.96538	374.71226	-748.34487	-256.25582	88.10354	-770.99382	-296.27351	50.81390	-719.48694	-134.28121	36.56361	-789.02072	-94.67262	58.70499	-736.12649	-240.06498	474.02867	-566.75038	-231.13792	108.03516	-544.03114	-224.28001	474.12730	-655.66743	-226.77871	106.22401	-689.31369	-198.98026	253.70075	-460.31375	-244.43490	362.91060	-397.19252	-268.72994	254.63948	-418.09316	-234.48975	397.87735	-816.16363	-245.66172	277.01944	-827.11680	-123.83371	776.83465	-453.14002	-124.09863	665.59519	-448.84705	-167.87619	641.67695	-404.46717	-225.83038	775.12887	-404.45263	-221.10350	659.41623	-400.11037	-131.54139	767.82951	-784.65221	-126.33124	629.04125	-783.21470	-236.82403	769.41451	-823.89829	-233.58134	628.66894	-816.48164	-114.02296	939.58827	-486.90707	-293.45296	988.55317	-561.01381	-102.56685	938.43907	-732.83465	-291.97592	988.08127	-677.40283	-293.37485	1434.95898	-620.74158	-238.40149	1407.59592	-464.58446	-234.00711	1413.99145	-778.05669	-166.97952	1399.18199	-604.45692	-164.19283	1396.22054	-642.65974	-206.40525	1280.12317	-403.65793	-258.70082	1080.44064	-458.32132	-231.62160	1085.58336	-388.13693	-169.57764	975.88347	-371.65471	-127.64594	879.39620	-375.65037	-158.91526	868.64066	-359.14717	-200.19952	1262.41588	-837.31963	-247.02130	1071.82792	-773.58232	-230.71816	1077.23970	-846.04049	-174.01902	996.14273	-863.41663	-124.62555	873.33101	-849.93789	-150.47363	865.28421	-868.40185	-205.10661	871.03881	-516.04666	-193.38056	866.66365	-705.01042	-185.54562	872.30133	-522.02788	-183.48371	871.64256	-684.50345	
259	2.58000000	-220.77932	474.00929	-434.05294	-189.54210	365.18565	-449.56411	-256.31499	90.09354	-465.97240	-302.50975	52.06210	-517.35330	-141.73026	39.93822	-434.87736	-105.45105	58.71217	-476.87962	-215.41672	475.70635	-787.31139	-179.96508	374.71368	-748.31379	-256.25831	88.11193	-770.99221	-296.40345	50.99861	-719.61041	-134.29348	36.59227	-789.00865	-94.68993	58.73826	-736.11897	-239.88749	474.18468	-566.89501	-231.14112	108.03115	-544.03350	-224.27302	474.12974	-655.66761	-226.43912	105.41003	-689.42480	-198.98896	253.70530	-460.30878	-244.44449	362.94399	-397.20249	-268.73838	254.63464	-418.09654	-234.48126	397.89158	-816.16114	-245.67296	277.04357	-827.14003	-123.85764	776.84066	-453.13712	-124.09947	665.61173	-448.84582	-167.88123	641.67028	-404.46330	-225.88768	775.06520	-404.50237	-220.91622	659.41231	-399.91637	-131.53230	767.82983	-784.65780	-126.32083	629.05781	-783.19706	-236.81928	769.45118	-823.90815	-233.54695	628.70742	-816.47132	-114.05076	939.58968	-486.91080	-293.45449	988.56051	-561.01570	-102.57107	938.42546	-732.84115	-291.98108	988.08946	-677.40805	-293.31896	1435.02434	-620.80007	-238.35401	1407.62499	-464.59702	-233.87568	1414.02774	-778.11149	-166.88450	1399.15737	-604.41168	-164.13788	1396.22295	-642.68123	-206.36471	1280.17650	-403.65892	-258.69982	1080.45400	-458.34307	-231.61848	1085.59485	-388.13209	-169.53404	975.90767	-371.66511	-127.63631	879.40941	-375.65150	-158.90916	868.64909	-359.20030	-200.11410	1262.41735	-837.33320	-246.78744	1071.74801	-773.74588	-230.67185	1077.27236	-846.08168	-173.95414	996.19483	-863.48516	-124.55661	873.40198	-850.06265	-150.44566	865.35322	-868.32951	-205.12754	871.04338	-516.04802	-193.39613	866.66080	-705.01127	-185.56172	872.29807	-522.02981	-183.50491	871.64051	-684.50804	
